<svg xmlns="http://www.w3.org/2000/svg" xmlns:xlink="http://www.w3.org/1999/xlink" viewBox="0 0 32 32"><defs><polygon id="a" points="0 .226 20.306 .226 20.306 15.999 0 15.999"/><polygon id="c" points=".306 .226 12 .226 12 16 .306 16"/></defs><g fill="none" fill-rule="evenodd" transform="translate(0 7)"><g transform="translate(0 .44)"><mask id="b" fill="white"><use xlink:href="#a"/></mask><path fill="#BE2E0D" d="M3.3 2.76h-.03v10.18c0 2 0 2.6 2.25 2.6V16H0v-.46c2.25 0 2.25-.6 2.25-2.6V3.21C2.25 1.31 2 .65 0 .65V.23h4.46l5.73 12.3L15.8.22h4.5v.42c-2.25 0-2.25.6-2.25 2.6v9.7c0 2 0 2.6 2.25 2.6V16h-6.75v-.46c2.25 0 2.25-.6 2.25-2.6V2.76h-.04L9.73 16h-.35L3.3 2.76z" mask="url(#b)"/></g><g transform="translate(20 .44)"><mask id="d" fill="white"><use xlink:href="#c"/></mask><path fill="#BE2E0D" d="M3.32 14.71c-.88 0-1.2-.98-1.2-1.72 0-2.34 2.29-6.59 4.4-6.59.9 0 1.42.72 1.42 1.6 0 2.07-2.81 6.71-4.62 6.71m4.88.07c-.2 0-.28-.22-.28-.37 0-.2.2-.85.22-1.03h.04L12 .23h-.22L8.23.82v.43c.24-.04.45-.09.67-.09.4 0 .94.1.94.62 0 .3-.15.72-.48 1.83l-.94 3.3a2.1 2.1 0 0 0-1.8-1.05C3.8 5.86.3 10 .3 13.19.3 14.4.9 16 2.36 16c1.94 0 3.66-2.55 4.58-4.04l.04.05a11.3 11.3 0 0 0-.76 2.97c0 .54.26 1.02.87 1.02 1.18 0 2.4-1.57 3.06-2.44l-.35-.22c-.29.33-1.14 1.44-1.6 1.44" mask="url(#d)"/></g></g></svg>